<svg xmlns="http://www.w3.org/2000/svg" width="50" height="50" viewBox="0 0 50 50" version="1.1"><path d="" stroke="none" fill="#080404" fill-rule="evenodd"/><path d="M 21.714 1.619 C 21.321 2.012, 21 3.136, 21 4.117 C 21 5.586, 19.988 5.953, 15.250 6.200 L 9.500 6.500 9.500 27.500 L 9.500 48.500 25 48.500 L 40.500 48.500 40.500 27.500 L 40.500 6.500 34.813 6.202 C 29.824 5.941, 29.088 5.634, 28.813 3.702 C 28.581 2.068, 27.716 1.423, 25.464 1.203 C 23.794 1.039, 22.107 1.227, 21.714 1.619 M 23.667 3.667 C 23.300 4.033, 23 5.383, 23 6.667 C 23 8.333, 23.571 9, 25 9 C 26.323 9, 27 8.333, 27 7.031 C 27 5.692, 26.520 5.247, 25.500 5.638 C 24.675 5.955, 24 5.753, 24 5.190 C 24 4.627, 24.563 3.940, 25.250 3.662 C 25.948 3.381, 26.021 3.123, 25.417 3.079 C 24.821 3.036, 24.033 3.300, 23.667 3.667 M 23 25 C 23 33.333, 23.148 34, 25 34 C 26.852 34, 27 33.333, 27 25 C 27 16.667, 26.852 16, 25 16 C 23.148 16, 23 16.667, 23 25 M 23 40 C 23 41.333, 23.667 42, 25 42 C 26.333 42, 27 41.333, 27 40 C 27 38.667, 26.333 38, 25 38 C 23.667 38, 23 38.667, 23 40" stroke="none" fill="#040404" fill-rule="evenodd"/></svg>