<svg xmlns="http://www.w3.org/2000/svg" width="1024" height="971" viewBox="0 0 1024 971" version="1.1"><path d="M 507.500 84.619 C 498.362 86.520, 489.417 90.921, 483.044 96.651 C 475.528 103.407, 472.249 108.742, 470.427 117.173 C 467.493 130.749, 466.013 134.924, 463.702 136.140 C 462.491 136.778, 458.474 139.266, 454.775 141.668 C 443.737 148.839, 437 161.009, 437 173.779 C 437 179.019, 436.837 179.341, 431.945 183.740 C 422.044 192.641, 416.292 210.770, 419.111 224.192 C 423.029 242.852, 435.978 256.866, 453.575 261.492 C 460.989 263.440, 478.722 264.441, 485.993 263.321 C 490.720 262.593, 491.684 262.059, 492.913 259.495 C 493.699 257.857, 494.924 255.934, 495.635 255.222 C 496.347 254.510, 497.733 252.560, 498.715 250.888 C 500.226 248.315, 500.998 247.906, 503.750 248.224 C 505.765 248.456, 507 248.157, 507 247.438 C 507 246.739, 507.995 246.468, 509.500 246.755 C 510.875 247.018, 512 247.589, 512 248.023 C 512 248.457, 512.900 248.577, 514 248.290 C 517.883 247.274, 515.910 246.217, 507.965 245.055 C 499.949 243.883, 499.923 243.887, 496.715 246.564 C 492.771 249.857, 491.773 251.512, 491.043 255.975 L 490.474 259.450 477.987 259.144 C 450.179 258.462, 438.010 252.752, 429.223 236.268 C 424.522 227.447, 423.181 218.155, 425.239 208.669 C 427.994 195.973, 430.978 191.104, 439.633 185.176 C 442.715 183.065, 442.774 182.871, 443.237 173.265 C 443.728 163.080, 444.951 159.381, 449.744 153.581 C 453.328 149.243, 460.076 144.384, 466.397 141.588 C 471.852 139.176, 472 139.004, 472 135.117 C 472 128.819, 474.887 117.961, 478.013 112.500 C 482.967 103.844, 492.846 95.121, 502.202 91.142 C 513.846 86.189, 530.340 88.385, 544.323 96.750 L 550.147 100.234 554.482 97.120 C 560.765 92.608, 567.224 91.365, 576.718 92.841 C 586.268 94.326, 597.864 99.738, 603.329 105.262 C 609.031 111.025, 610.005 113.477, 610.841 124.179 C 611.285 129.855, 612.290 135.829, 613.074 137.454 C 613.999 139.370, 617.310 142.101, 622.500 145.230 C 639.545 155.505, 643.281 159.788, 644.547 170.500 C 645.359 177.371, 648.391 186.249, 650.531 188.026 C 652.972 190.051, 658.125 199.804, 659.932 205.818 C 663.896 219.009, 659.052 236.272, 648.801 245.489 C 642.683 250.990, 641.028 251.903, 630.500 255.586 C 623.785 257.936, 620.947 258.376, 612.828 258.326 C 603.421 258.268, 602.948 258.152, 595.625 254.133 C 588.963 250.477, 587.339 250, 581.547 250 C 577.849 250, 575 250.435, 575 251 C 575 251.550, 576.321 252, 577.935 252 C 579.549 252, 582.048 252.448, 583.488 252.995 C 586.112 253.993, 593.874 259.623, 595.214 261.500 C 596.516 263.325, 619.110 263.361, 628.038 261.552 C 645.454 258.024, 658.013 247.817, 664.112 232.238 C 665.972 227.484, 666.360 224.527, 666.372 215 C 666.390 201.434, 665.463 198.433, 657.604 186.599 C 652.804 179.372, 652.086 177.585, 650.926 170 C 650.124 164.755, 648.836 160.385, 647.563 158.587 C 643.659 153.075, 636.283 146.493, 630.097 143 C 618.695 136.562, 618.859 136.859, 616.579 118.664 C 616.128 115.068, 612.673 108.658, 607.236 101.330 C 604.364 97.458, 593.397 90.696, 585.404 87.869 C 576.758 84.810, 562.821 85.568, 554.821 89.533 L 549.143 92.347 541.821 88.688 C 530.725 83.143, 520.450 81.925, 507.500 84.619 M 532.599 199.750 C 531.914 201.989, 532.533 221.028, 533.494 227.250 C 533.941 230.149, 533.850 232, 533.260 232 C 531.490 232, 522.098 242.263, 513.258 253.856 C 511.626 255.997, 509.585 257.119, 505.758 257.982 C 497.628 259.816, 494 261.072, 494 262.053 C 494 263.097, 498.414 262.448, 505.500 260.362 C 508.250 259.553, 511.338 258.769, 512.362 258.620 C 513.387 258.471, 514.647 257.596, 515.162 256.675 C 515.678 255.754, 516.763 255, 517.575 255 C 518.412 255, 519.308 253.710, 519.647 252.016 C 519.975 250.375, 520.682 249.303, 521.217 249.634 C 522.840 250.637, 526.512 248.062, 528.365 244.620 C 530.455 240.741, 537.389 235.996, 540.950 236.009 C 544.871 236.024, 553.506 241.486, 556.665 245.950 C 558.224 248.154, 560.084 249.967, 560.798 249.979 C 561.512 249.990, 563.191 251.182, 564.530 252.627 C 566.874 255.156, 567.058 255.192, 569.492 253.597 L 572.020 251.941 569.260 249.452 C 566.180 246.676, 555.650 239.289, 543.669 231.500 C 542.626 230.822, 541.962 228.248, 541.605 223.500 C 541.088 216.607, 537.935 201.322, 536.577 199.125 C 535.521 197.416, 533.202 197.781, 532.599 199.750 M 574.250 272.091 C 569.163 275.433, 565 278.605, 565 279.140 C 565 280.368, 568.502 278.280, 577.960 271.415 C 587.982 264.141, 585.730 264.551, 574.250 272.091 M 358.500 393.938 C 352.588 396.969, 349.973 401.420, 349.891 408.592 C 349.812 415.501, 351.119 419.443, 354.751 423.250 C 357.125 425.739, 359.782 427.097, 358.664 425.250 C 358.414 424.837, 358.743 424.050, 359.394 423.500 C 361.046 422.105, 363.283 421.733, 362.511 422.982 C 361.594 424.466, 364.916 425.484, 366.267 424.133 C 367.111 423.289, 367.095 423, 366.203 423 C 365.544 423, 363.204 421.373, 361.003 419.384 C 357.384 416.115, 357 415.304, 357 410.939 C 357 400.894, 365.199 397.740, 377.123 403.199 C 380.085 404.555, 383.131 405.456, 383.893 405.202 C 384.655 404.948, 385.005 405.183, 384.671 405.724 C 383.907 406.959, 388.767 409.262, 390.229 408.358 C 390.857 407.970, 391.021 408.157, 390.622 408.803 C 390.223 409.448, 391.207 410.573, 392.967 411.483 C 394.687 412.372, 396 412.607, 396 412.026 C 396 411.462, 395.373 411, 394.607 411 C 393.841 411, 392.984 410.400, 392.702 409.667 C 392.421 408.933, 392.803 408.333, 393.551 408.333 C 394.300 408.333, 394.727 408.633, 394.500 409 C 394.273 409.367, 394.719 409.667, 395.490 409.667 C 396.500 409.667, 396.637 409.191, 395.981 407.965 C 395.480 407.029, 395.355 405.979, 395.702 405.631 C 396.049 405.284, 395.557 405, 394.608 405 C 393.659 405, 393.114 405.375, 393.397 405.833 C 393.680 406.292, 393.264 406.667, 392.472 406.667 C 391.363 406.667, 391.294 406.350, 392.173 405.291 C 393.030 404.259, 393.026 403.626, 392.158 402.758 C 391.281 401.881, 391 401.902, 391 402.844 C 391 403.528, 390.212 403.955, 389.250 403.794 C 388.224 403.621, 387.614 404.048, 387.775 404.824 C 387.931 405.576, 387.569 405.852, 386.938 405.461 C 386.137 404.967, 386.130 404.470, 386.913 403.687 C 389.061 401.539, 387.885 400.216, 380.505 396.470 C 371.122 391.707, 364.368 390.930, 358.500 393.938 M 399.242 407.816 C 399.629 409.298, 399.441 409.794, 398.657 409.355 C 397.992 408.982, 398.050 409.297, 398.792 410.095 C 399.892 411.277, 400.223 411.262, 401.026 409.992 C 401.545 409.171, 401.976 408.973, 401.985 409.550 C 401.993 410.127, 401.460 411.140, 400.800 411.800 C 399.867 412.733, 399.959 413, 401.217 413 C 402.106 413, 403.060 412.438, 403.338 411.750 C 403.639 411.003, 403.874 411.205, 403.921 412.250 C 403.964 413.212, 404.337 413.891, 404.750 413.758 C 406.473 413.201, 410.247 416.913, 409.620 418.548 C 409.153 419.765, 409.390 420.064, 410.489 419.643 C 411.320 419.324, 412 419.499, 412 420.031 C 412 420.564, 412.788 421.007, 413.750 421.015 C 415.091 421.027, 415.188 421.228, 414.165 421.877 C 413.151 422.520, 413.331 422.853, 414.917 423.268 C 416.064 423.568, 416.780 423.453, 416.507 423.012 C 416.235 422.570, 416.712 421.941, 417.569 421.612 C 418.426 421.283, 418.893 420.636, 418.607 420.174 C 418.322 419.712, 418.743 419.333, 419.544 419.333 C 421.459 419.333, 421.382 419.965, 419.250 421.721 C 417.583 423.095, 417.583 423.137, 419.250 422.613 C 421.294 421.970, 421.534 423.057, 419.750 424.871 C 418.742 425.896, 419.081 426.015, 421.500 425.490 C 423.775 424.996, 424.138 425.096, 423 425.904 C 421.705 426.824, 421.739 426.971, 423.250 426.985 C 424.212 426.993, 425 427.450, 425 428 C 425 428.550, 425.675 429, 426.500 429 C 427.325 429, 428 429.367, 428 429.815 C 428 430.263, 429.645 431.414, 431.655 432.373 C 434.603 433.778, 435.471 433.863, 436.140 432.808 C 436.776 431.805, 436.973 431.880, 436.985 433.128 C 436.993 434.023, 437.615 435.266, 438.367 435.890 C 439.943 437.198, 442.459 434.891, 442.485 432.114 C 442.503 430.183, 432.319 423.685, 430.772 424.641 C 430.128 425.039, 429.980 424.842, 430.405 424.155 C 430.821 423.481, 430.503 423, 429.642 423 C 428.831 423, 427.899 423.563, 427.572 424.250 C 427.245 424.938, 427.166 424.487, 427.396 423.249 C 427.625 422.010, 427.405 421.249, 426.907 421.558 C 426.408 421.866, 426 421.615, 426 421 C 426 420.385, 425.550 420.160, 425 420.500 C 424.450 420.840, 424 420.650, 424 420.078 C 424 419.506, 422.762 418.745, 421.250 418.388 C 419.738 418.030, 417.068 416.671, 415.317 415.369 C 411.961 412.871, 410 412.355, 410 413.969 C 410 414.501, 409.299 414.668, 408.443 414.340 C 407.586 414.011, 407.113 413.148, 407.392 412.422 C 407.714 411.583, 407.370 411.304, 406.449 411.658 C 405.652 411.964, 405 411.746, 405 411.175 C 405 410.604, 403.576 409.122, 401.835 407.882 L 398.670 405.629 399.242 407.816 M 445.476 432.619 C 446.367 433.510, 446.824 434.509, 446.493 434.840 C 446.162 435.171, 445.538 434.871, 445.107 434.174 C 444.487 433.169, 444.077 433.203, 443.136 434.336 C 442.192 435.473, 442.313 435.926, 443.724 436.547 C 444.701 436.976, 445.874 437.366, 446.331 437.414 C 446.787 437.461, 447.737 438.288, 448.441 439.250 C 449.375 440.528, 451.122 441, 454.919 441 C 458.143 441, 459.882 440.619, 459.498 439.997 C 459.157 439.445, 457.443 439.228, 455.689 439.514 C 453.347 439.897, 452.899 439.769, 454 439.033 C 454.825 438.482, 456.245 438.024, 457.156 438.015 C 458.318 438.005, 458.656 437.402, 458.290 436 C 457.699 433.743, 456.418 433.377, 455.662 435.250 C 455.316 436.108, 455.128 436.029, 455.064 435 C 454.980 433.667, 454.855 433.667, 453.943 435 C 453.098 436.236, 452.968 436.147, 453.208 434.500 C 453.420 433.052, 452.849 432.408, 451.139 432.166 C 449.651 431.955, 449.023 432.228, 449.441 432.904 C 449.849 433.565, 449.508 433.748, 448.552 433.382 C 447.698 433.054, 447 432.384, 447 431.893 C 447 431.402, 446.293 431, 445.429 431 C 444.020 431, 444.025 431.167, 445.476 432.619 M 461 431.776 C 461 432.386, 460.145 432.720, 459.099 432.519 C 457.358 432.184, 457.311 432.372, 458.548 434.755 C 459.290 436.186, 459.709 437.661, 459.479 438.033 C 459.249 438.405, 460.396 438.663, 462.028 438.605 C 464.185 438.529, 464.996 438.006, 464.998 436.691 C 464.999 435.696, 465.457 435.165, 466.016 435.510 C 466.575 435.856, 466.799 436.516, 466.513 436.979 C 466.227 437.441, 466.238 438.456, 466.536 439.233 C 466.960 440.339, 469.579 440.646, 478.539 440.639 C 484.843 440.634, 490 440.314, 490 439.926 C 490 439.539, 487.974 439.359, 485.498 439.527 C 481.810 439.776, 480.721 439.439, 479.479 437.666 C 478.112 435.715, 472.450 434.301, 473.626 436.204 C 473.897 436.642, 473.529 437.007, 472.809 437.015 C 471.789 437.027, 471.806 437.225, 472.889 437.910 C 473.844 438.515, 473.377 438.718, 471.389 438.562 C 469.800 438.437, 468.500 437.925, 468.500 437.424 C 468.500 436.923, 469.175 436.642, 470 436.798 C 471.333 437.052, 471.333 436.969, 470 436.057 C 468.989 435.365, 468.908 435.026, 469.750 435.015 C 470.438 435.007, 471 434.325, 471 433.500 C 471 432.675, 470.523 432, 469.941 432 C 469.359 432, 469.131 432.403, 469.435 432.895 C 469.740 433.388, 469.345 434.037, 468.559 434.339 C 467.773 434.641, 466.904 434.350, 466.629 433.694 C 466.295 432.897, 465.514 433.196, 464.280 434.594 C 462.841 436.225, 462.180 436.418, 461.292 435.468 C 460.459 434.576, 460.450 433.950, 461.260 433.140 C 461.868 432.532, 462.059 431.726, 461.683 431.350 C 461.308 430.974, 461 431.166, 461 431.776" stroke="none" fill="#7a141d" fill-rule="evenodd"/><path d="M 511.917 88.963 C 505.072 89.867, 496.079 93.875, 490.339 98.579 C 485.395 102.630, 477.948 112.067, 476.136 116.579 C 474.151 121.520, 472.393 130.212, 472.612 134 C 472.861 138.301, 470.918 140.645, 465.841 142.166 C 461.720 143.400, 450.438 152.144, 447.872 156.091 C 444.875 160.703, 442.922 168.607, 443.108 175.370 L 443.290 181.999 436.704 188.034 C 427.557 196.415, 425.606 201.480, 425.545 217 C 425.500 228.488, 425.504 228.507, 429.338 235.500 C 436.837 249.179, 445.411 255.060, 461.340 257.451 C 474.798 259.471, 490.458 259.705, 490.592 257.888 C 490.649 257.125, 490.764 255.471, 490.848 254.214 C 490.931 252.956, 492.972 249.869, 495.382 247.354 L 499.764 242.781 507.882 244.535 C 512.347 245.500, 516 246.622, 516 247.028 C 516 248.273, 511.614 248.994, 510.916 247.864 C 510.555 247.281, 509.429 246.963, 508.412 247.159 C 506.785 247.473, 506.906 247.832, 509.424 250.167 C 511.405 252.003, 512.085 253.384, 511.637 254.659 C 510.902 256.753, 513.774 253.500, 518.500 246.887 C 520.150 244.578, 524.145 239.946, 527.379 236.594 L 533.258 230.500 532.270 222.500 C 530.210 205.815, 533.066 191.649, 537.005 199.010 C 538.367 201.554, 541.659 216.868, 542.564 224.865 C 543.243 230.865, 543.328 231.001, 548.377 234.174 C 551.194 235.945, 555.161 238.855, 557.190 240.640 C 559.220 242.426, 562.370 244.652, 564.190 245.587 C 566.011 246.522, 568.491 248.347, 569.702 249.643 C 571.996 252.098, 575 252.807, 575 250.894 C 575 250.151, 577.541 249.905, 582.750 250.144 C 588.691 250.417, 591.205 251.003, 593.520 252.655 C 599.246 256.739, 606.325 258.341, 615.834 257.706 C 641.218 256.011, 656.992 243.746, 660.188 223.222 C 662.181 210.421, 659.689 201.430, 650.633 188.738 C 646.677 183.194, 645.941 181.303, 644.495 172.969 C 643.592 167.761, 641.934 162.013, 640.811 160.195 C 638.473 156.410, 630.799 150.404, 623.500 146.646 C 614.097 141.804, 611.004 137.514, 610.994 129.300 C 610.976 113.943, 607.113 107.042, 594.357 99.575 C 585.530 94.408, 577.006 92.458, 566.934 93.302 C 559.477 93.928, 556.921 94.919, 552.757 98.803 L 550.013 101.361 547.757 99.289 C 542.598 94.551, 535.304 91.775, 520 88.724 C 518.625 88.450, 514.987 88.558, 511.917 88.963 M 326.250 113.750 C 352.512 113.898, 395.487 113.898, 421.750 113.750 C 448.012 113.601, 426.525 113.480, 374 113.480 C 321.475 113.480, 299.987 113.601, 326.250 113.750 M 636.317 114.749 C 647.766 114.910, 666.216 114.909, 677.317 114.749 C 688.418 114.588, 679.050 114.456, 656.500 114.457 C 633.950 114.457, 624.868 114.589, 636.317 114.749 M 246.321 122.749 C 261.622 122.905, 286.372 122.905, 301.321 122.749 C 316.269 122.594, 303.750 122.467, 273.500 122.467 C 243.250 122.467, 231.019 122.594, 246.321 122.749 M 749.684 122.748 C 760.235 122.910, 777.785 122.911, 788.684 122.749 C 799.583 122.587, 790.950 122.455, 769.500 122.455 C 748.050 122.454, 739.133 122.587, 749.684 122.748 M 619.750 123.723 C 621.538 123.945, 624.462 123.945, 626.250 123.723 C 628.038 123.502, 626.575 123.320, 623 123.320 C 619.425 123.320, 617.962 123.502, 619.750 123.723 M 869.470 184 C 869.470 217.825, 869.596 231.662, 869.749 214.750 C 869.903 197.837, 869.903 170.162, 869.749 153.250 C 869.596 136.337, 869.470 150.175, 869.470 184 M 219.471 196 C 219.471 230.925, 219.596 245.212, 219.749 227.750 C 219.903 210.287, 219.903 181.712, 219.749 164.250 C 219.596 146.787, 219.471 161.075, 219.471 196 M 210.473 275 C 210.473 313.225, 210.598 328.862, 210.750 309.750 C 210.902 290.637, 210.902 259.362, 210.750 240.250 C 210.598 221.137, 210.473 236.775, 210.473 275 M 524.446 249.087 C 524.077 249.685, 522.971 249.964, 521.988 249.707 C 520.671 249.363, 520.058 249.962, 519.652 251.990 C 519.323 253.637, 518.280 254.955, 517.051 255.276 C 515.923 255.571, 515 256.353, 515 257.013 C 515 257.697, 515.681 257.953, 516.582 257.607 C 517.452 257.273, 520.152 257, 522.582 257 L 527 257 527 252.500 C 527 248.212, 525.897 246.739, 524.446 249.087 M 495.924 254.910 C 492.318 258.896, 492.985 262.275, 496.895 259.833 C 499.002 258.518, 499.941 256.294, 499.254 254.250 C 498.703 252.612, 497.848 252.782, 495.924 254.910 M 869.349 263 C 869.349 267.675, 869.522 269.587, 869.732 267.250 C 869.943 264.913, 869.943 261.087, 869.732 258.750 C 869.522 256.413, 869.349 258.325, 869.349 263 M 561.250 258.220 C 560.013 258.817, 559 259.687, 559 260.153 C 559 261.558, 560.642 261.114, 563.139 259.033 C 565.712 256.890, 564.812 256.503, 561.250 258.220 M 524.744 279.095 C 525.705 280.327, 526.047 297.828, 526.250 356.095 L 526.513 431.500 526.756 355.872 C 526.985 284.868, 526.893 280.161, 525.250 278.872 C 523.701 277.658, 523.643 277.683, 524.744 279.095 M 560.460 283.250 C 560.197 283.938, 560.099 317.350, 560.242 357.500 L 560.500 430.500 561 356.250 C 561.275 315.412, 561.373 282, 561.219 282 C 561.064 282, 560.722 282.563, 560.460 283.250 M 869.490 486 C 869.490 591.875, 869.607 635.188, 869.750 582.250 C 869.893 529.313, 869.893 442.688, 869.750 389.750 C 869.607 336.813, 869.490 380.125, 869.490 486 M 210.336 355 C 210.336 359.125, 210.513 360.813, 210.728 358.750 C 210.944 356.688, 210.944 353.313, 210.728 351.250 C 210.513 349.188, 210.336 350.875, 210.336 355 M 220.484 482 C 220.484 549.375, 220.604 576.938, 220.750 543.250 C 220.896 509.563, 220.896 454.438, 220.750 420.750 C 220.604 387.063, 220.484 414.625, 220.484 482 M 210.370 381 C 210.370 386.775, 210.535 389.137, 210.737 386.250 C 210.939 383.363, 210.939 378.637, 210.737 375.750 C 210.535 372.863, 210.370 375.225, 210.370 381 M 210.468 448 C 210.468 479.075, 210.594 491.788, 210.749 476.250 C 210.904 460.713, 210.904 435.288, 210.749 419.750 C 210.594 404.213, 210.468 416.925, 210.468 448 M 393.500 402.725 C 394.050 403.245, 396.750 404.898, 399.500 406.398 C 402.250 407.899, 403.600 408.387, 402.500 407.485 C 400.262 405.648, 391.933 401.244, 393.500 402.725 M 356.153 425.135 C 360.253 428.980, 373 436.890, 373 435.588 C 373 435.318, 369.966 433.401, 366.258 431.327 C 362.549 429.253, 357.712 426.030, 355.508 424.163 C 352.704 421.789, 352.898 422.080, 356.153 425.135 M 586.493 431.724 L 593.992 432.084 594.252 555.042 L 594.512 678 594.506 554.750 L 594.500 431.500 586.747 431.432 L 578.993 431.365 586.493 431.724 M 508.819 435.619 C 509.915 437.709, 509.516 439, 507.774 439 C 507.284 439, 507.190 438.502, 507.566 437.893 C 508.032 437.139, 507.533 437.013, 506 437.500 C 504.326 438.031, 503.949 437.891, 504.529 436.953 C 505.011 436.173, 504.904 435.941, 504.248 436.346 C 503.665 436.707, 503.425 437.911, 503.716 439.022 C 504.092 440.461, 504.590 440.755, 505.446 440.045 C 506.256 439.372, 507.031 439.431, 507.824 440.224 C 508.725 441.125, 509 441.106, 509 440.141 C 509 439.449, 509.450 439.160, 510 439.500 C 510.550 439.840, 511 439.555, 511 438.868 C 511 438.159, 511.685 438.458, 512.582 439.559 C 514.029 441.335, 514.114 441.344, 513.582 439.668 C 513.262 438.661, 512.964 437.086, 512.921 436.168 C 512.867 435.035, 512.674 434.921, 512.317 435.811 C 511.913 436.820, 511.322 436.705, 509.751 435.311 C 507.757 433.543, 507.735 433.550, 508.819 435.619 M 531 434.631 C 531 434.988, 531.788 435.916, 532.750 436.695 C 534.339 437.980, 534.299 438.013, 532.316 437.055 C 529.494 435.692, 529 435.726, 529 437.282 C 529 437.987, 527.827 438.661, 526.394 438.779 C 524.348 438.949, 523.923 438.643, 524.417 437.356 C 524.958 435.946, 524.819 435.905, 523.422 437.065 C 520.928 439.135, 518.829 439.062, 518.260 436.887 C 517.758 434.966, 517.709 434.970, 516.257 437.044 C 515.062 438.750, 515.018 439.398, 516.031 440.334 C 517.021 441.247, 517.161 441.121, 516.679 439.750 C 516.340 438.788, 516.337 438, 516.671 438 C 517.006 438, 517.861 438.788, 518.572 439.750 C 519.608 441.152, 520.117 441.252, 521.133 440.250 C 522.643 438.760, 524.380 438.577, 523.500 440 C 523.160 440.550, 523.809 441, 524.941 441 C 526.073 441, 527.007 440.438, 527.015 439.750 C 527.026 438.917, 527.354 439, 528 440 C 528.533 440.825, 528.976 440.990, 528.985 440.367 C 529.002 439.110, 533.787 439.086, 535.758 440.332 C 536.497 440.800, 537.660 440.483, 538.579 439.564 C 539.997 438.145, 539.991 438, 538.512 438 C 537.616 438, 537.160 437.550, 537.500 437 C 537.840 436.450, 537.674 436, 537.132 436 C 536.590 436, 535.941 436.788, 535.689 437.750 C 535.357 439.020, 535.200 439.086, 535.116 437.991 C 535.005 436.551, 531 433.282, 531 434.631 M 378.500 439.096 C 389.739 446.419, 392.393 447.999, 393.421 447.984 C 394.015 447.975, 392.831 446.962, 390.791 445.734 C 388.752 444.505, 384.477 441.925, 381.291 440.001 C 373.785 435.465, 372.079 434.912, 378.500 439.096 M 540.343 440.250 C 540.089 440.663, 549.021 440.912, 560.191 440.804 C 580.722 440.606, 578.572 440.234, 554.152 439.760 C 546.811 439.617, 540.597 439.837, 540.343 440.250 M 584.233 442.292 C 585.779 443.544, 585.996 446.420, 586.250 469.097 L 586.536 494.500 586.768 468.785 L 587 443.070 584.750 441.980 C 582.732 441.002, 582.679 441.035, 584.233 442.292 M 462.308 473.748 C 469.353 473.920, 480.603 473.919, 487.308 473.747 C 494.014 473.574, 488.250 473.433, 474.500 473.434 C 460.750 473.434, 455.264 473.576, 462.308 473.748 M 507.448 513.500 C 507.447 531.650, 507.582 539.216, 507.748 530.314 C 507.913 521.411, 507.914 506.561, 507.749 497.314 C 507.583 488.066, 507.448 495.350, 507.448 513.500 M 499.480 585 C 499.480 636.425, 499.601 657.462, 499.750 631.750 C 499.898 606.037, 499.898 563.962, 499.750 538.250 C 499.601 512.537, 499.480 533.575, 499.480 585 M 209.474 612.500 C 209.474 651.550, 209.598 667.671, 209.750 648.323 C 209.901 628.976, 209.901 597.026, 209.750 577.323 C 209.598 557.621, 209.474 573.450, 209.474 612.500 M 587.456 638 C 587.456 660.275, 587.588 669.388, 587.749 658.250 C 587.910 647.113, 587.910 628.888, 587.749 617.750 C 587.588 606.613, 587.456 615.725, 587.456 638 M 373.812 677.748 C 382.233 677.916, 395.733 677.915, 403.812 677.748 C 411.890 677.580, 405 677.443, 388.500 677.443 C 372 677.444, 365.390 677.581, 373.812 677.748 M 676.816 677.749 C 687.440 677.911, 704.540 677.911, 714.816 677.748 C 725.092 677.586, 716.400 677.453, 695.500 677.454 C 674.600 677.454, 666.192 677.587, 676.816 677.749 M 749.250 677.748 C 757.913 677.915, 772.087 677.915, 780.750 677.748 C 789.413 677.582, 782.325 677.445, 765 677.445 C 747.675 677.445, 740.587 677.582, 749.250 677.748 M 209.349 692 C 209.349 696.675, 209.522 698.587, 209.732 696.250 C 209.943 693.913, 209.943 690.087, 209.732 687.750 C 209.522 685.413, 209.349 687.325, 209.349 692 M 219.460 686.250 C 219.198 686.938, 219.100 724.400, 219.242 769.500 L 219.500 851.500 220 768.250 C 220.275 722.462, 220.373 685, 220.219 685 C 220.064 685, 219.723 685.563, 219.460 686.250 M 228.728 685.722 C 230.503 685.943, 233.653 685.946, 235.728 685.730 C 237.802 685.513, 236.350 685.333, 232.500 685.328 C 228.650 685.324, 226.952 685.501, 228.728 685.722 M 302.250 685.750 C 323.563 685.900, 358.438 685.900, 379.750 685.750 C 401.063 685.599, 383.625 685.476, 341 685.476 C 298.375 685.476, 280.938 685.599, 302.250 685.750 M 451.728 686.722 C 453.503 686.943, 456.653 686.946, 458.728 686.730 C 460.802 686.513, 459.350 686.333, 455.500 686.328 C 451.650 686.324, 449.952 686.501, 451.728 686.722 M 485.486 686.734 L 498.974 687.056 499.256 721.778 L 499.538 756.500 499.519 721.500 L 499.500 686.500 485.749 686.456 L 471.997 686.412 485.486 686.734 M 506.454 687.258 C 506.189 687.950, 506.097 703.138, 506.250 721.008 L 506.529 753.500 506.764 720.300 L 507 687.100 512.750 686.739 L 518.500 686.378 512.719 686.189 C 508.848 686.062, 506.778 686.416, 506.454 687.258 M 594.472 753 C 594.472 790.125, 594.597 805.313, 594.750 786.750 C 594.902 768.188, 594.902 737.813, 594.750 719.250 C 594.597 700.688, 594.472 715.875, 594.472 753 M 854.223 686.734 L 868.945 687.053 869.264 700.777 L 869.582 714.500 869.541 700.500 L 869.500 686.500 854.500 686.457 L 839.500 686.414 854.223 686.734 M 879.472 765 C 879.472 801.025, 879.597 815.763, 879.750 797.750 C 879.902 779.737, 879.902 750.263, 879.750 732.250 C 879.597 714.237, 879.472 728.975, 879.472 765 M 209.385 724 C 209.385 730.875, 209.545 733.688, 209.740 730.250 C 209.936 726.813, 209.936 721.188, 209.740 717.750 C 209.545 714.313, 209.385 717.125, 209.385 724 M 869.411 752 C 869.411 761.625, 869.561 765.563, 869.745 760.750 C 869.928 755.938, 869.928 748.063, 869.745 743.250 C 869.561 738.438, 869.411 742.375, 869.411 752 M 209.432 761 C 209.432 774.475, 209.574 779.987, 209.747 773.250 C 209.920 766.513, 209.920 755.487, 209.747 748.750 C 209.574 742.013, 209.432 747.525, 209.432 761 M 869.328 783.500 C 869.333 787.350, 869.513 788.802, 869.730 786.728 C 869.946 784.653, 869.943 781.503, 869.722 779.728 C 869.501 777.952, 869.324 779.650, 869.328 783.500 M 879.180 846.195 L 879 851.890 874.250 852.265 L 869.500 852.640 874.281 852.820 C 879.837 853.029, 880.288 852.413, 879.740 845.373 L 879.360 840.500 879.180 846.195" stroke="none" fill="#234f46" fill-rule="evenodd"/><path d="M 358.989 404.250 C 357.899 406.038, 357.022 408.850, 357.039 410.500 C 357.105 416.698, 359.946 419.345, 377 429.092 C 382.775 432.393, 390.875 437.330, 395 440.063 C 399.125 442.797, 403.850 445.660, 405.500 446.426 C 412.160 449.519, 444.324 470.098, 445.519 472.031 C 445.885 472.622, 458.189 473, 477.087 473 L 508.056 473 507.366 575.500 L 506.676 678 546.988 678 L 587.299 678 586.768 560.947 C 586.257 448.147, 586.169 443.843, 584.369 442.479 C 582.801 441.292, 571.635 441.058, 515.119 441.032 L 447.737 441 438.619 436.371 C 433.603 433.825, 424.325 428.808, 418 425.222 C 411.675 421.636, 398.766 414.719, 389.314 409.851 C 373.735 401.828, 371.606 401, 366.549 401 C 361.329 401, 360.843 401.209, 358.989 404.250 M 512.750 686.718 L 507 687.100 507 765.550 L 507 844 547 844 L 587 844 587 765.607 C 587 701.045, 586.764 687.123, 585.661 686.700 C 584.143 686.117, 521.557 686.132, 512.750 686.718" stroke="none" fill="#c8a083" fill-rule="evenodd"/><path d="M 340.192 113.994 L 210.885 114.500 210.422 482.611 C 210.050 779.426, 210.206 850.906, 211.230 851.673 C 211.929 852.196, 213.175 852.552, 214 852.465 C 214.825 852.377, 216.285 852.236, 217.244 852.152 C 218.886 852.009, 219.004 847.100, 219.244 768.750 L 219.500 685.500 302 685.267 C 347.375 685.139, 410.375 685.364, 442 685.767 L 499.500 686.500 499.107 767.750 L 498.714 849 546.357 849 L 594 849 594.014 834.750 C 594.021 826.913, 594.015 790.236, 594 753.246 L 593.973 685.993 731.737 686.246 L 869.500 686.500 869.329 769.250 L 869.158 852 873.990 852 L 878.822 852 879.161 845.750 C 879.348 842.313, 879.500 676.375, 879.500 477 L 879.500 114.500 748.101 114.732 C 675.831 114.860, 616.608 115.085, 616.493 115.232 C 616.378 115.380, 616.493 117.176, 616.748 119.223 L 617.213 122.947 740.585 122.644 C 808.440 122.477, 865.297 122.537, 866.933 122.777 L 869.908 123.214 869.962 400.607 L 870.017 678 732.008 678 L 594 678 594 554.947 L 594 431.894 587.250 431.817 C 583.538 431.774, 576.225 431.685, 571 431.620 C 565.775 431.554, 561.169 431.050, 560.765 430.500 C 559.630 428.955, 559.859 283.765, 561 282 C 561.533 281.175, 561.976 280.853, 561.985 281.284 C 561.993 281.716, 563.251 280.789, 564.780 279.226 C 568.821 275.091, 581.939 266.844, 583.217 267.634 C 583.871 268.038, 584.023 267.846, 583.595 267.155 C 583.156 266.443, 583.581 266, 584.700 266 C 585.701 266, 587.081 265.100, 587.768 264 C 588.455 262.900, 589.490 262, 590.067 262 C 590.645 262, 590.838 262.453, 590.495 263.008 C 590.135 263.590, 590.953 263.523, 592.436 262.847 C 593.846 262.205, 594.983 261.414, 594.962 261.089 C 594.912 260.310, 587.207 254.825, 584.015 253.295 C 580.341 251.535, 572.362 251.716, 569.447 253.627 C 567.071 255.183, 566.860 255.140, 564.530 252.627 C 563.191 251.182, 561.512 249.990, 560.798 249.979 C 560.084 249.967, 558.224 248.154, 556.665 245.950 C 553.506 241.486, 544.871 236.024, 540.950 236.009 C 537.638 235.997, 530.722 240.507, 528.636 244.040 C 527.712 245.604, 527 248.973, 527 251.784 L 527 256.760 521.250 257.287 C 514.455 257.909, 510.421 258.689, 507 260.040 C 505.625 260.582, 502.568 261.358, 500.206 261.763 C 497.844 262.169, 495.887 262.937, 495.857 263.471 C 495.827 264.005, 500.909 266.736, 507.151 269.539 C 513.393 272.343, 520.413 275.849, 522.750 277.331 L 527 280.025 527 355.513 L 527 431 520.559 431 C 517.016 431, 513.840 431.450, 513.500 432 C 513.160 432.550, 512.346 432.993, 511.691 432.985 C 510.962 432.975, 511.082 432.567, 512 431.931 C 513.251 431.065, 513.184 430.943, 511.594 431.196 C 509.269 431.567, 508.672 434.483, 510.595 436.079 C 511.685 436.984, 512.009 436.937, 512.039 435.872 C 512.061 435.118, 512.714 435.962, 513.491 437.750 C 514.268 439.538, 515.166 441, 515.487 441 C 515.808 441, 515.636 440.188, 515.105 439.196 C 514.515 438.094, 514.495 436.830, 515.054 435.946 C 515.752 434.844, 515.973 434.814, 515.985 435.821 C 515.996 436.813, 516.392 436.751, 517.571 435.571 C 519.317 433.826, 521.583 433.517, 522.442 434.907 C 522.751 435.405, 522.032 435.560, 520.845 435.249 C 519.238 434.829, 518.894 435.020, 519.498 435.997 C 520.069 436.921, 519.922 437.070, 519 436.500 C 518.062 435.920, 517.921 436.089, 518.501 437.095 C 520.592 440.720, 521.029 440.886, 524.582 439.401 C 527.641 438.123, 528.113 438.131, 528.627 439.471 C 528.948 440.306, 529.635 440.726, 530.154 440.405 C 530.674 440.083, 530.108 438.961, 528.897 437.910 C 527.031 436.292, 526.957 436, 528.413 436 C 529.358 436, 531.114 436.475, 532.316 437.055 C 534.299 438.013, 534.339 437.980, 532.750 436.695 C 530.343 434.748, 530.535 433.561, 532.980 435.273 C 535.011 436.696, 541.382 436.428, 540.473 434.957 C 540.195 434.507, 540.494 433.813, 541.138 433.415 C 541.869 432.963, 542.041 433.124, 541.595 433.845 C 541.195 434.493, 541.456 435.001, 542.191 435.001 C 542.911 435.002, 542.190 436.129, 540.588 437.506 C 537.822 439.886, 537.468 442.065, 540.114 440.430 C 540.800 440.006, 546.736 439.744, 553.307 439.847 C 561.707 439.979, 565.717 439.659, 566.818 438.768 C 568.087 437.741, 568.237 437.744, 567.611 438.786 C 567.009 439.786, 568.245 440.035, 573.169 439.907 C 577.037 439.806, 580.959 440.356, 583.250 441.320 L 587 442.898 587.002 482.699 C 587.004 504.590, 587.303 557.487, 587.667 600.250 C 588.167 659.078, 588.045 678.030, 587.164 678.125 C 586.524 678.194, 585.325 678.250, 584.500 678.250 C 583.675 678.250, 565.882 678.194, 544.960 678.125 L 506.920 678 507.210 575.750 L 507.500 473.500 477.117 473.799 C 448.313 474.083, 446.624 473.998, 444.617 472.176 C 440.285 468.242, 430.008 461.877, 428.997 462.502 C 428.422 462.857, 428.074 462.706, 428.225 462.164 C 428.562 460.957, 419.889 454.950, 418.789 455.630 C 418.355 455.898, 418 455.615, 418 455 C 418 454.385, 417.550 454.160, 417 454.500 C 416.450 454.840, 416 454.653, 416 454.085 C 416 453.517, 412.738 451.210, 408.750 448.959 C 404.762 446.708, 399.594 443.659, 397.264 442.183 C 383.815 433.664, 376.121 429.060, 374.896 428.797 C 374.132 428.634, 373.032 427.897, 372.452 427.161 C 371.871 426.424, 370.520 425.974, 369.448 426.161 C 368.344 426.353, 367.599 425.987, 367.728 425.315 C 367.866 424.601, 366.872 424.203, 365.228 424.315 C 363.506 424.432, 362.592 424.039, 362.750 423.250 C 362.888 422.562, 362.455 422.112, 361.789 422.250 C 358.685 422.891, 357.133 426.453, 359.553 427.382 C 360.344 427.685, 360.596 427.172, 360.270 425.925 C 359.543 423.144, 361.294 423.572, 362.656 426.509 C 363.293 427.880, 363.405 428.750, 362.906 428.442 C 362.408 428.134, 362 428.089, 362 428.342 C 362 428.595, 363.526 429.703, 365.391 430.803 L 368.782 432.804 369.864 430.652 C 370.835 428.722, 370.897 428.810, 370.467 431.500 C 370.204 433.150, 370.253 433.938, 370.577 433.250 C 371.414 431.476, 373.055 431.692, 372.367 433.486 C 372.005 434.428, 372.657 435.335, 374.148 435.963 C 375.442 436.508, 378.975 438.526, 382 440.447 C 385.025 442.368, 389.750 445.141, 392.500 446.609 C 395.250 448.077, 400.200 451.074, 403.500 453.269 C 406.800 455.464, 413.534 459.504, 418.464 462.247 C 423.394 464.990, 429.349 468.644, 431.697 470.367 C 434.046 472.090, 438.628 475.212, 441.879 477.303 C 448.760 481.730, 449.559 481.826, 480.250 481.932 L 500 482 500 580 L 500 678 492.250 678.158 C 487.988 678.244, 483.950 678.296, 483.278 678.273 C 482.606 678.250, 423.206 677.903, 351.278 677.501 C 279.350 677.100, 220.447 676.710, 220.382 676.636 C 220.318 676.561, 220.021 551.737, 219.723 399.250 L 219.182 122 344.044 122 L 468.906 122 469.947 118.250 C 471.191 113.772, 471.242 112.921, 470.250 113.244 C 469.837 113.379, 411.312 113.716, 340.192 113.994 M 500.716 249.701 C 501.005 250.455, 500.495 251, 499.500 251 C 498.252 251, 497.987 251.476, 498.527 252.750 C 499.610 255.311, 499.287 258.190, 497.800 259.226 C 496.888 259.861, 497.097 259.988, 498.500 259.653 C 499.600 259.390, 502.845 258.645, 505.711 257.997 C 512.059 256.562, 513.518 253.954, 509.857 250.584 C 507.181 248.121, 499.837 247.412, 500.716 249.701 M 561.250 258.220 C 560.013 258.817, 559 259.687, 559 260.153 C 559 261.558, 560.642 261.114, 563.139 259.033 C 565.712 256.890, 564.812 256.503, 561.250 258.220 M 392.526 403.042 C 392.881 403.617, 392.691 404.668, 392.102 405.377 C 391.313 406.328, 391.410 406.667, 392.472 406.667 C 393.264 406.667, 393.680 406.292, 393.397 405.833 C 393.114 405.375, 393.659 405, 394.608 405 C 395.557 405, 396.049 405.284, 395.702 405.631 C 395.355 405.979, 395.480 407.029, 395.981 407.965 C 396.637 409.191, 396.500 409.667, 395.490 409.667 C 394.719 409.667, 394.273 409.367, 394.500 409 C 394.727 408.633, 394.300 408.333, 393.551 408.333 C 392.803 408.333, 392.421 408.933, 392.702 409.667 C 392.984 410.400, 393.803 411, 394.524 411 C 395.244 411, 395.983 411.366, 396.167 411.814 C 396.541 412.727, 407.898 419, 409.178 419 C 409.630 419, 410 418.433, 410 417.741 C 410 416.414, 406.031 413.426, 404.750 413.788 C 404.337 413.905, 403.964 413.212, 403.921 412.250 C 403.874 411.205, 403.639 411.003, 403.338 411.750 C 403.060 412.438, 402.106 413, 401.217 413 C 399.959 413, 399.867 412.733, 400.800 411.800 C 401.460 411.140, 401.993 410.127, 401.985 409.550 C 401.976 408.973, 401.545 409.171, 401.026 409.992 C 400.223 411.262, 399.892 411.277, 398.792 410.095 C 398.050 409.297, 397.992 408.982, 398.657 409.355 C 399.420 409.782, 399.639 409.334, 399.299 408.037 C 399.017 406.956, 397.232 405.154, 395.333 404.034 C 393.434 402.913, 392.171 402.467, 392.526 403.042 M 418.565 420.105 C 418.827 420.530, 418.329 421.276, 417.458 421.764 C 416.044 422.555, 416.037 422.786, 417.393 423.911 C 418.929 425.186, 421 424.647, 421 422.972 C 421 422.472, 420.212 422.310, 419.250 422.613 C 417.583 423.137, 417.583 423.095, 419.250 421.721 C 421.382 419.965, 421.459 419.333, 419.544 419.333 C 418.743 419.333, 418.303 419.681, 418.565 420.105 M 442.490 431.017 C 442.110 431.631, 442.071 432.404, 442.402 432.735 C 442.733 433.067, 442.314 434.101, 441.469 435.034 C 440.065 436.586, 440.213 436.846, 443.217 438.092 C 447.774 439.982, 449.603 440.203, 448.081 438.681 C 447.431 438.031, 446.585 437.461, 446.200 437.414 C 445.815 437.366, 444.701 436.976, 443.724 436.547 C 442.313 435.926, 442.192 435.473, 443.136 434.336 C 444.077 433.203, 444.487 433.169, 445.107 434.174 C 445.538 434.871, 446.144 435.190, 446.452 434.881 C 446.760 434.573, 446.150 433.326, 445.096 432.111 C 443.831 430.652, 442.945 430.280, 442.490 431.017 M 447 431.893 C 447 432.384, 447.698 433.054, 448.552 433.382 C 449.508 433.748, 449.849 433.565, 449.441 432.904 C 449.023 432.228, 449.651 431.955, 451.139 432.166 C 452.849 432.408, 453.420 433.052, 453.208 434.500 C 452.990 435.998, 453.148 436.158, 453.837 435.137 C 454.615 433.986, 454.842 433.986, 455.300 435.137 C 455.685 436.105, 455.865 436.138, 455.921 435.250 C 456.046 433.270, 457.714 433.798, 458.290 436 C 458.656 437.402, 458.318 438.005, 457.156 438.015 C 456.245 438.024, 454.825 438.482, 454 439.033 C 452.899 439.769, 453.347 439.897, 455.689 439.514 C 457.443 439.228, 459.157 439.445, 459.498 439.997 C 460.409 441.471, 461.702 441.220, 462.387 439.435 C 462.856 438.211, 462.524 438.016, 460.868 438.542 C 459.652 438.928, 458.994 438.819, 459.324 438.285 C 459.639 437.775, 459.290 436.186, 458.548 434.755 C 457.311 432.372, 457.358 432.184, 459.099 432.519 C 460.145 432.720, 461 432.461, 461 431.943 C 461 431.424, 459.623 431, 457.941 431 C 455.784 431, 455.090 431.369, 455.588 432.250 C 456.152 433.250, 456.024 433.250, 454.947 432.250 C 453.412 430.826, 447 430.538, 447 431.893 M 461.378 432.767 C 460.561 434.074, 460.585 434.823, 461.470 435.649 C 462.361 436.482, 462.953 436.305, 463.796 434.954 C 464.652 433.584, 464.632 433.023, 463.714 432.650 C 463.043 432.378, 463.296 432.123, 464.281 432.079 C 465.261 432.036, 466.311 432.647, 466.614 433.437 C 467.296 435.212, 469.667 434.451, 469.667 432.457 C 469.667 430.258, 462.784 430.515, 461.378 432.767 M 471 434 C 471 436.410, 470.574 437, 468.833 437 C 465.607 437, 467.466 438.253, 471.118 438.541 C 473.251 438.709, 473.826 438.504, 472.889 437.910 C 471.806 437.225, 471.789 437.027, 472.809 437.015 C 473.529 437.007, 473.843 436.555, 473.507 436.011 C 473.157 435.445, 473.558 435.277, 474.448 435.618 C 475.302 435.946, 476 436.841, 476 437.607 C 476 438.373, 476.502 439, 477.115 439 C 477.817 439, 477.664 438.136, 476.702 436.668 C 475.862 435.386, 475.518 433.780, 475.938 433.101 C 476.453 432.268, 477.118 432.870, 477.979 434.949 C 479.004 437.425, 479.531 437.804, 480.651 436.875 C 481.779 435.938, 481.913 436.062, 481.353 437.523 C 480.876 438.765, 481.025 439.103, 481.830 438.605 C 482.474 438.207, 483 438.326, 483 438.869 C 483 439.412, 484.688 439.831, 486.750 439.799 C 488.813 439.767, 492.203 439.977, 494.285 440.265 C 497.217 440.671, 497.838 440.510, 497.043 439.552 C 495.549 437.752, 496.839 436.988, 499.603 438.039 C 500.921 438.540, 502.032 438.624, 502.070 438.225 C 502.109 437.826, 502.527 438.400, 503 439.500 C 503.735 441.210, 503.870 441.246, 503.930 439.750 C 503.968 438.788, 504.450 438, 505 438 C 505.550 438, 506.023 436.988, 506.052 435.750 C 506.091 434.012, 506.457 434.353, 507.658 437.250 C 509.255 441.100, 512.012 442.374, 511.985 439.250 C 511.972 437.754, 511.828 437.718, 511 439 C 510.467 439.825, 509.989 440.275, 509.939 440 C 509.888 439.725, 509.683 438.825, 509.482 438 C 509.281 437.175, 508.880 435.427, 508.590 434.115 C 507.995 431.423, 507 430.032, 507 431.892 C 507 432.622, 506.494 432.803, 505.750 432.339 C 505.063 431.910, 500.553 431.461, 495.729 431.341 C 489.172 431.177, 487.137 431.422, 487.671 432.311 C 488.162 433.131, 487.899 433.107, 486.823 432.236 C 485.258 430.970, 481.657 431.009, 480.359 432.308 C 479.293 433.374, 477.803 433.127, 478.500 432 C 479.588 430.240, 474.777 430.931, 473.279 432.750 C 471.905 434.417, 471.863 434.417, 472.387 432.750 C 472.690 431.788, 472.501 431, 471.969 431 C 471.436 431, 471 432.350, 471 434 M 506.488 687.019 C 506.142 687.579, 506.185 723.129, 506.583 766.019 L 507.308 844 547.154 844 L 587 844 587 765 L 587 686 547.059 686 C 521.019 686, 506.899 686.355, 506.488 687.019" stroke="none" fill="#1d2d26" fill-rule="evenodd"/><path d="M 0 485.501 L 0 971.002 512.250 970.751 L 1024.500 970.500 1024.751 485.250 L 1025.002 -0 512.501 -0 L 0 0 0 485.501 M 0.496 486 C 0.496 753.025, 0.610 862.263, 0.750 728.750 C 0.890 595.238, 0.890 376.763, 0.750 243.250 C 0.610 109.738, 0.496 218.975, 0.496 486 M 502.667 85.494 C 498.184 86.804, 492.505 89.386, 489.388 91.533 C 483.037 95.907, 474.452 104.984, 472.201 109.706 L 470.630 113 392.065 113.001 C 348.854 113.002, 290.197 113.300, 261.716 113.665 L 209.932 114.328 210.012 253.414 C 210.056 329.911, 209.921 483.400, 209.711 594.500 C 209.501 705.600, 209.593 809.100, 209.915 824.500 L 210.500 852.500 214.086 852.801 C 216.259 852.983, 218.127 852.551, 218.830 851.705 C 219.682 850.678, 220.056 828.589, 220.244 768.030 L 220.500 685.751 328.524 685.923 C 387.937 686.017, 444.444 686.298, 454.094 686.547 C 463.744 686.796, 477.796 687, 485.320 687 L 499 687 499 768 L 499 849 546.341 849 L 593.682 849 594.341 827.839 C 594.703 816.200, 595 779.517, 595 746.321 L 595 685.964 716.250 686.171 C 782.938 686.285, 844.585 686.550, 853.244 686.759 L 868.988 687.141 869.244 769.820 L 869.500 852.500 874.500 852.500 L 879.500 852.500 879.751 483.250 L 880.003 114 747.501 114 C 637.175 114, 615 113.775, 615 112.655 C 615 111.915, 614.100 110.495, 613 109.500 C 611.900 108.505, 611 107.244, 611 106.698 C 611 104.296, 603.539 96.954, 597.304 93.220 C 586.835 86.950, 581.745 85.660, 569.610 86.200 C 560.737 86.595, 558.625 87.039, 554.405 89.397 L 549.504 92.136 542.502 88.587 C 530.722 82.617, 516.344 81.500, 502.667 85.494 M 273.268 122.759 L 219.037 123.017 219.562 130.939 C 219.852 135.295, 220.181 259.869, 220.294 407.768 L 220.500 676.677 359.465 677.290 C 435.895 677.628, 498.537 677.796, 498.669 677.664 C 498.801 677.532, 498.972 633.566, 499.050 579.962 L 499.191 482.500 473.513 482.233 L 447.834 481.966 437.167 474.839 C 431.300 470.919, 421.100 464.572, 414.500 460.735 C 407.900 456.897, 401.825 453.170, 401 452.451 C 400.175 451.733, 396.800 449.755, 393.500 448.057 C 390.200 446.358, 384.760 443.247, 381.411 441.143 C 378.061 439.039, 371.788 435.367, 367.469 432.983 C 352.942 424.964, 348.296 418.507, 349.200 407.598 C 350.026 397.647, 356.406 392, 366.823 392 C 372.101 392, 374.197 392.716, 386.069 398.571 C 393.396 402.185, 400.541 405.953, 401.946 406.944 C 403.351 407.935, 410.125 411.688, 417 415.284 C 423.875 418.880, 433.100 423.884, 437.500 426.404 L 445.500 430.985 485.750 430.993 L 526 431 526 355.514 L 526 280.028 522.239 277.539 C 520.170 276.171, 513.309 272.736, 506.991 269.908 C 500.673 267.080, 494.706 264.207, 493.730 263.523 C 492.410 262.599, 490.619 262.530, 486.728 263.256 C 480.851 264.353, 460.807 263.563, 454.112 261.971 C 446.049 260.054, 438.664 255.807, 432.212 249.376 C 414.205 231.429, 413.441 203.276, 430.468 185.155 C 436.672 178.552, 436.726 178.445, 437.288 171.500 C 438.075 161.774, 439.383 158.058, 444.433 151.198 C 447.563 146.946, 451.229 143.673, 457.276 139.731 C 464.907 134.757, 465.899 133.745, 467.369 129.429 C 468.266 126.797, 469 124.043, 469 123.309 C 469 121.940, 453.902 121.897, 273.268 122.759 M 623.198 123.796 C 617.592 124.065, 616.961 124.302, 617.483 125.945 C 617.805 126.961, 618.401 129.738, 618.807 132.116 C 619.483 136.076, 620.026 136.710, 625.265 139.656 C 632.558 143.756, 642.267 151.215, 644.922 154.757 C 646.053 156.265, 647.505 158.120, 648.148 158.878 C 648.792 159.636, 650.083 164.461, 651.018 169.599 C 652.539 177.961, 653.301 179.811, 658.274 187.221 C 664.787 196.926, 667 204.152, 667 215.713 C 667 234.068, 658.508 248.121, 642.146 256.842 C 633.562 261.417, 623.393 263.152, 606.864 262.863 L 593.227 262.625 586.619 266.562 C 582.984 268.728, 575.733 273.391, 570.505 276.925 L 561 283.349 561 357.150 L 561 430.952 577.750 431.226 L 594.500 431.500 594.754 554.500 L 595.008 677.500 732.004 677.545 L 869 677.590 869 400.244 L 869 122.898 749.250 123.197 C 683.388 123.361, 626.664 123.631, 623.198 123.796" stroke="none" fill="#86abb1" fill-rule="evenodd"/></svg>